<?xml version="1.0" standalone="no"?>
<!DOCTYPE svg PUBLIC "-//W3C//DTD SVG 20010904//EN"
 "http://www.w3.org/TR/2001/REC-SVG-20010904/DTD/svg10.dtd">
<svg version="1.0" xmlns="http://www.w3.org/2000/svg"
 width="800.000000pt" height="455.000000pt" viewBox="0 0 800.000000 455.000000"
 preserveAspectRatio="xMidYMid meet">

<g transform="translate(0.000000,455.000000) scale(0.100000,-0.100000)"
fill="#000000" stroke="none">
<path d="M1924 4371 c-52 -9 -89 -33 -114 -74 -18 -29 -20 -51 -20 -239 l0
-208 -97 -1 c-54 0 -222 -4 -373 -9 -228 -6 -284 -10 -325 -25 -60 -22 -141
-100 -173 -165 -24 -50 -29 -71 -271 -1125 -94 -407 -218 -947 -276 -1200
-165 -717 -175 -763 -175 -824 0 -84 35 -147 110 -200 108 -76 64 -70 855
-117 242 -14 464 -23 494 -21 149 15 251 122 297 312 9 39 20 73 23 77 4 5
1217 8 2696 9 1480 1 2746 5 2813 10 151 10 281 32 370 62 l67 22 3 53 3 52
-318 0 -318 0 3 1702 c2 1096 -1 1726 -7 1767 -14 88 -51 127 -136 141 -68 11
-5064 12 -5131 1z m4926 -342 c10 -24 10 -32 0 -42 -10 -9 -11 -9 -6 0 5 9 -1
12 -18 11 -32 -3 -34 -21 -3 -35 l22 -11 -27 -12 c-15 -7 -38 -10 -53 -6 -26
7 -27 8 -10 26 10 11 15 26 12 35 -4 8 -2 15 4 15 6 0 7 5 4 10 -3 6 -2 10 4
10 5 0 11 -6 14 -12 3 -9 7 -7 12 6 5 11 3 21 -6 27 -22 14 -37 10 -44 -11 -6
-19 -35 -29 -35 -12 0 11 31 38 50 44 28 9 68 -13 80 -43z m-4757 8 c3 -8 -1
-14 -9 -14 -15 0 -18 9 -7 20 9 9 10 9 16 -6z m41 -34 c-9 -10 -21 -18 -25
-18 -4 0 -11 -3 -15 -7 -4 -4 -13 -3 -21 3 -7 6 -13 8 -13 4 0 -4 -7 -2 -15 5
-16 14 -18 10 -9 -14 4 -11 19 -16 43 -16 20 0 43 -5 51 -10 11 -7 1 -10 -35
-10 -61 0 -70 6 -78 48 -6 30 -5 32 14 21 11 -6 23 -8 26 -5 3 3 12 -2 20 -12
13 -15 14 -15 9 0 -3 12 0 16 14 13 10 -2 24 3 31 11 6 8 14 12 17 10 2 -3 -4
-13 -14 -23z m81 17 c-6 -10 10 -14 55 -12 13 1 28 -4 32 -11 6 -9 8 -9 8 1 0
6 9 12 20 12 17 0 20 -6 18 -35 l-2 -35 -52 0 c-32 0 -54 5 -56 12 -3 7 -18
12 -35 10 -25 -2 -29 1 -27 20 1 13 3 25 4 28 1 3 2 8 1 13 0 4 8 7 20 7 11 0
17 -4 14 -10z m573 3 c-10 -2 -26 -2 -35 0 -10 3 -2 5 17 5 19 0 27 -2 18 -5z
m3692 -13 c0 -14 -7 -20 -24 -20 -19 0 -23 4 -19 20 3 11 14 20 24 20 12 0 19
-7 19 -20z m-2762 -2 c29 1 31 0 22 -18 -12 -23 -35 -27 -26 -5 4 13 2 13 -14
5 -13 -7 -21 -7 -26 1 -4 8 -9 7 -15 -2 -7 -12 -9 -12 -9 0 0 11 -3 11 -15 1
-13 -10 -15 -9 -15 10 0 19 3 21 33 14 17 -4 47 -6 65 -6z m-930 -5 c-10 -2
-26 -2 -35 0 -10 3 -2 5 17 5 19 0 27 -2 18 -5z m1025 -9 c-4 -11 -8 -12 -13
-4 -5 9 -9 9 -14 1 -10 -16 -26 -14 -26 4 0 10 10 15 30 15 23 0 28 -4 23 -16z
m37 1 c0 -8 -7 -15 -15 -15 -16 0 -20 12 -8 23 11 12 23 8 23 -8z m-1083 -11
c-3 -3 -12 -4 -19 -1 -8 3 -5 6 6 6 11 1 17 -2 13 -5z m158 -244 c3 -5 17 -10
30 -10 13 0 26 -6 29 -12 5 -10 7 -10 12 0 8 17 35 15 28 -3 -8 -21 -75 -17
-97 7 -10 10 -23 15 -29 12 -7 -5 -5 -12 7 -21 16 -11 17 -13 3 -13 -23 0 -32
18 -18 35 14 17 26 19 35 5z m135 -25 c0 -8 -4 -15 -10 -15 -5 0 -10 7 -10 15
0 8 5 15 10 15 6 0 10 -7 10 -15z m40 0 c0 -8 -7 -15 -15 -15 -8 0 -15 7 -15
15 0 8 7 15 15 15 8 0 15 -7 15 -15z m34 0 c3 -9 0 -15 -9 -15 -8 0 -15 7 -15
15 0 8 4 15 9 15 5 0 11 -7 15 -15z m-1054 -25 c0 -17 -6 -20 -37 -19 -21 0
-32 3 -26 6 7 2 15 4 18 3 3 0 13 6 21 15 20 20 24 19 24 -5z m80 10 c0 -12
-35 -31 -44 -23 -15 15 -4 33 19 33 14 0 25 -4 25 -10z m103 4 c14 -15 -8 -34
-39 -34 -32 0 -45 16 -27 33 8 9 58 9 66 1z m-1250 -10 c10 -10 -4 -34 -20
-34 -13 0 -13 2 -2 17 12 14 12 16 0 8 -10 -5 -12 -4 -7 3 8 13 19 15 29 6z
m53 -10 c-3 -9 -6 -17 -6 -20 0 -2 -7 -1 -15 2 -12 5 -13 10 -4 20 16 19 33
18 25 -2z m27 -4 c-3 -11 -7 -20 -9 -20 -2 0 -4 9 -4 20 0 11 4 20 9 20 5 0 7
-9 4 -20z m557 -233 c70 -46 93 -142 57 -229 -27 -65 -111 -143 -174 -163 -22
-6 -23 -3 -23 39 0 48 16 66 59 66 12 0 21 5 21 10 0 6 -4 10 -10 10 -5 0 -10
7 -10 15 0 8 -7 15 -15 15 -9 0 -15 9 -15 22 0 12 -7 29 -16 39 -14 16 -14 19
4 37 10 10 17 27 16 38 -4 24 14 35 48 28 36 -7 47 14 18 38 -45 36 -133 10
-174 -53 -31 -46 -31 -50 -6 -119 11 -32 19 -46 20 -32 0 12 4 22 9 22 10 0 3
-39 -11 -57 -6 -8 -3 -15 11 -23 12 -6 21 -15 21 -21 0 -6 -14 1 -31 15 -39
33 -65 34 -71 1 -4 -19 -1 -25 13 -25 9 0 19 5 21 11 3 9 11 8 28 -2 21 -11
22 -14 8 -17 -31 -6 -19 -27 13 -24 3 0 11 -9 18 -20 13 -20 11 -21 -34 -16
-85 10 -138 72 -138 161 0 29 7 69 16 89 21 50 89 122 140 147 59 29 143 28
187 -2z m2136 -29 c4 -7 3 -8 -4 -4 -7 4 -12 3 -12 -3 0 -5 6 -12 13 -14 7 -3
5 -6 -5 -6 -18 -1 -24 19 -11 32 9 9 11 9 19 -5z m-439 -20 c-3 -8 -6 -5 -6 6
-1 11 2 17 5 13 3 -3 4 -12 1 -19z m390 8 c4 -3 1 -12 -5 -18 -9 -9 -12 -9
-12 0 0 8 -9 10 -25 6 -19 -5 -25 -2 -25 10 0 12 8 15 30 12 17 -2 34 -6 37
-10z m133 -1 c0 -10 -11 -15 -35 -15 -19 0 -35 5 -35 11 0 7 10 9 24 5 14 -3
28 -2 31 4 9 14 15 12 15 -5z m84 0 c2 -6 -12 -11 -35 -12 -22 -1 -39 3 -39 8
0 6 4 8 9 4 5 -3 12 -2 15 3 7 12 45 9 50 -3z m1816 -8 c9 -3 4 -6 -12 -6 -27
-1 -35 8 -21 22 4 4 9 3 12 -1 3 -5 13 -12 21 -15z m95 4 c-3 -6 -14 -11 -23
-11 -15 1 -15 2 2 15 21 16 32 13 21 -4z m507 -3 c-6 -6 -15 -8 -19 -4 -4 4
-1 11 7 16 8 5 17 7 19 4 3 -2 -1 -10 -7 -16z m85 0 c-3 -8 -6 -5 -6 6 -1 11
2 17 5 13 3 -3 4 -12 1 -19z m-537 0 c0 -9 3 -8 10 2 5 8 12 11 16 7 4 -4 3
-12 -4 -19 -8 -8 -15 -8 -26 1 -8 7 -20 10 -26 6 -5 -3 -10 -1 -10 4 0 6 9 11
20 11 11 0 20 -6 20 -12z m70 8 c0 -3 -4 -8 -10 -11 -5 -3 -10 -1 -10 4 0 6 5
11 10 11 6 0 10 -2 10 -4z m35 -6 c-3 -5 -10 -10 -16 -10 -5 0 -9 5 -9 10 0 6
7 10 16 10 8 0 12 -4 9 -10z m30 0 c3 -5 1 -10 -4 -10 -6 0 -11 5 -11 10 0 6
2 10 4 10 3 0 8 -4 11 -10z m385 3 c0 -5 -11 -8 -25 -8 -14 0 -25 3 -25 8 0 4
11 7 25 7 14 0 25 -3 25 -7z m460 -13 c0 -5 -2 -10 -4 -10 -3 0 -8 5 -11 10
-3 6 -1 10 4 10 6 0 11 -4 11 -10z m-5416 -118 c3 7 5 4 3 -7 -3 -26 -31 -26
-36 0 -3 16 -1 17 12 7 12 -10 16 -10 21 0z m2389 -89 c-7 -2 -19 -2 -25 0 -7
3 -2 5 12 5 14 0 19 -2 13 -5z m-53 -33 c6 -11 8 -20 6 -20 -3 0 -10 9 -16 20
-6 11 -8 20 -6 20 3 0 10 -9 16 -20z m320 10 c0 -5 -5 -10 -11 -10 -5 0 -7 5
-4 10 3 6 8 10 11 10 2 0 4 -4 4 -10z m-40 -4 c0 -3 -4 -8 -10 -11 -5 -3 -10
-1 -10 4 0 6 5 11 10 11 6 0 10 -2 10 -4z m-150 -36 c0 -5 -7 -10 -16 -10 -8
0 -12 5 -9 10 3 6 10 10 16 10 5 0 9 -4 9 -10z m-5 -200 c53 -102 118 -223
143 -270 25 -47 40 -80 35 -75 -14 13 -168 295 -238 437 -87 173 -49 115 60
-92z m2755 180 c13 -8 13 -10 -2 -10 -9 0 -20 5 -23 10 -8 13 5 13 25 0z
m-890 -45 c0 -9 -9 -15 -22 -16 l-23 0 23 -9 c28 -12 29 -30 1 -30 -25 0 -17
-16 12 -23 17 -5 24 2 41 44 11 27 27 49 35 49 17 0 56 -88 48 -108 -4 -12 -8
-13 -17 -4 -13 13 -54 16 -61 5 -3 -5 -28 -6 -56 -5 l-51 4 0 54 0 54 35 0
c24 0 35 -5 35 -15z m220 -5 c7 -13 7 -26 1 -38 -6 -11 -6 -24 -1 -32 16 -25
-13 -31 -32 -7 -14 17 -18 19 -18 6 0 -9 -7 -19 -15 -23 -12 -4 -15 5 -15 54
l0 60 35 0 c24 0 37 -6 45 -20z m50 -20 c0 -37 7 -45 33 -41 4 0 7 -6 7 -14 0
-10 -11 -15 -35 -15 l-35 0 0 55 c0 42 3 55 15 55 11 0 15 -11 15 -40z m75 23
c6 -17 7 -17 19 0 7 9 21 17 31 17 15 0 15 -3 -4 -36 -12 -19 -21 -44 -21 -55
0 -10 -7 -19 -15 -19 -8 0 -15 9 -15 19 0 11 -9 36 -21 55 -21 36 -21 36 -1
36 11 0 23 -8 27 -17z m618 -9 c15 -4 27 -10 27 -15 0 -13 -21 -10 -65 12 -25
12 -30 17 -15 14 14 -3 37 -8 53 -11z m117 -14 c8 -5 11 -10 5 -10 -5 0 -17 5
-25 10 -8 5 -10 10 -5 10 6 0 17 -5 25 -10z m-200 -20 c0 -5 -2 -10 -4 -10 -3
0 -8 5 -11 10 -3 6 -1 10 4 10 6 0 11 -4 11 -10z m75 -8 c-3 -3 -11 0 -18 7
-9 10 -8 11 6 5 10 -3 15 -9 12 -12z m-38 -16 c-2 -6 0 -22 5 -36 6 -15 6 -21
0 -15 -5 6 -14 24 -20 42 -9 27 -8 31 4 26 8 -3 13 -11 11 -17z m-2590 -18
c-3 -7 -5 -2 -5 12 0 14 2 19 5 13 2 -7 2 -19 0 -25z m2688 22 c7 -12 -2 -12
-30 0 -19 8 -19 9 2 9 12 1 25 -3 28 -9z m-125 -10 c0 -5 -4 -10 -10 -10 -5 0
-10 5 -10 10 0 6 5 10 10 10 6 0 10 -4 10 -10z m113 -19 c37 -16 57 -36 57
-57 0 -11 -49 -2 -60 11 -7 8 -18 15 -26 15 -7 0 -18 9 -24 19 -20 38 -11 39
53 12z m67 9 c8 -5 11 -10 5 -10 -5 0 -17 5 -25 10 -8 5 -10 10 -5 10 6 0 17
-5 25 -10z m-2750 -25 c0 -2 -10 -9 -22 -15 -22 -11 -22 -10 -4 4 21 17 26 19
26 11z m2690 -57 c41 -11 85 -23 98 -25 30 -7 32 -67 2 -83 -11 -6 -20 -8 -20
-4 0 4 -9 -1 -19 -10 -14 -13 -21 -14 -26 -6 -4 7 -1 16 6 21 11 7 11 9 -2 9
-9 0 -24 -9 -33 -19 -17 -18 -16 -20 3 -26 26 -8 27 -25 2 -25 -11 0 -23 9
-26 20 -4 12 -15 20 -29 20 -12 0 -31 7 -42 15 -18 14 -16 15 21 13 22 -2 42
-6 45 -9 3 -4 11 -1 17 6 10 11 2 17 -45 30 -81 22 -87 27 -90 73 l-3 41 33
-10 c18 -5 67 -19 108 -31z m87 30 c11 -19 12 -37 3 -43 -4 -3 -13 9 -19 25
-10 30 1 42 16 18z m-5737 -43 c0 -8 -6 -13 -12 -11 -7 1 -10 1 -5 -1 15 -9 6
-29 -13 -29 -22 0 -22 1 -14 34 7 25 44 31 44 7z m165 -6 c-6 -19 -5 -19 17
-7 12 7 26 18 30 23 9 12 10 -11 2 -42 -6 -22 -44 -33 -44 -13 0 6 -9 6 -24 0
-39 -14 -66 -8 -66 15 -1 18 -2 18 -15 -5 -8 -14 -14 -19 -15 -11 0 11 -3 11
-15 1 -16 -14 -35 -5 -35 16 0 20 27 29 44 15 11 -9 15 -9 19 1 3 11 8 11 26
0 12 -7 21 -8 21 -2 0 18 30 11 31 -7 1 -18 2 -16 14 25 3 6 7 12 10 12 4 0 3
-9 0 -21z m115 11 c0 -5 -8 -10 -17 -10 -11 0 -14 -3 -7 -8 8 -5 5 -13 -8 -27
-19 -20 -20 -20 -12 10 4 17 9 33 11 38 6 11 33 9 33 -3z m36 -19 c22 18 38
-2 20 -26 -12 -16 -16 -17 -30 -6 -13 11 -16 11 -16 1 0 -8 -3 -11 -6 -7 -3 3
-2 21 2 39 7 28 9 30 12 10 3 -19 6 -21 18 -11z m57 -16 c-6 -30 -21 -25 -17
7 3 31 3 30 13 24 4 -3 6 -17 4 -31z m133 13 c-3 5 7 9 23 9 25 0 27 -2 17
-24 -7 -15 -12 -18 -14 -8 -2 7 -10 11 -18 8 -7 -3 -11 -9 -8 -14 3 -5 -2 -9
-10 -9 -9 0 -16 6 -16 13 0 8 -4 7 -10 -3 -8 -12 -10 -10 -10 10 l-1 25 -14
-25 c-15 -26 -19 -20 -9 17 6 20 7 21 41 7 19 -8 32 -11 29 -6z m-80 0 c5 -8
2 -9 -9 -5 -11 4 -17 1 -17 -9 0 -8 5 -12 10 -9 6 3 10 1 10 -4 0 -14 -27 -14
-35 -1 -7 11 12 40 26 40 4 0 11 -5 15 -12z m5163 -104 c17 -4 28 -10 25 -15
-7 -12 -44 -12 -44 0 0 5 -8 12 -17 14 -28 7 1 8 36 1z m181 -41 c-1 -39 -10
-33 -24 15 -6 16 -3 22 8 22 12 0 16 -10 16 -37z m-322 -6 l31 -24 -29 -28
c-16 -16 -31 -27 -34 -24 -7 8 -13 99 -7 99 4 0 21 -11 39 -23z m152 -4 c0 10
8 17 19 17 22 0 40 -20 19 -20 -7 -1 -2 -7 12 -15 24 -14 22 -14 -33 -13 -46
0 -57 4 -53 15 3 8 6 20 6 26 0 7 7 3 15 -7 13 -17 15 -18 15 -3z m-3710 -13
c0 -11 7 -20 15 -20 8 0 15 9 15 20 0 11 7 20 15 20 12 0 15 -13 15 -55 0 -42
-3 -55 -15 -55 -8 0 -15 9 -15 20 0 11 -7 20 -15 20 -8 0 -15 -9 -15 -20 0
-13 -7 -20 -20 -20 -17 0 -20 7 -20 44 0 39 -2 44 -20 39 -16 -4 -20 -14 -20
-44 0 -28 -4 -39 -15 -39 -11 0 -15 11 -15 40 0 29 -4 40 -15 40 -8 0 -15 7
-15 15 0 12 14 15 70 15 63 0 70 -2 70 -20z m150 5 c0 -8 -10 -16 -22 -16
l-23 -2 23 -4 c28 -6 29 -33 0 -33 -12 0 -18 -3 -14 -7 4 -4 15 -8 23 -8 9 0
18 -6 20 -12 3 -9 -8 -13 -36 -13 l-41 0 0 55 0 55 35 0 c24 0 35 -5 35 -15z
m1280 -46 c0 -10 7 -19 15 -19 8 0 15 9 15 20 0 11 7 20 15 20 12 0 15 -13 15
-60 0 -47 -3 -60 -15 -60 -9 0 -15 9 -15 25 0 32 -27 34 -32 3 -2 -13 -10 -23
-18 -23 -11 0 -16 13 -18 46 -3 41 -6 46 -23 42 -15 -4 -19 -14 -19 -49 0 -32
-4 -44 -15 -44 -11 0 -15 12 -15 45 0 33 -4 45 -15 45 -8 0 -15 7 -15 15 0 12
14 15 70 14 62 -1 70 -3 70 -20z m150 7 c0 -8 -10 -17 -22 -19 l-23 -4 23 -8
c27 -9 29 -25 2 -25 -27 0 -25 -18 3 -22 34 -5 22 -23 -18 -26 l-35 -3 0 60 0
61 35 0 c24 0 35 -5 35 -14z m2198 -12 c6 -2 12 -8 12 -14 0 -7 -6 -8 -19 0
-11 5 -36 10 -55 10 -20 0 -36 5 -36 10 0 9 61 6 98 -6z m5 -36 l97 -22 0
-128 0 -128 -57 5 c-102 10 -121 15 -128 33 -4 9 -15 72 -25 140 -19 143 -31
133 113 100z m-6053 -157 c0 -4 -9 -7 -20 -8 -11 -1 -20 4 -20 12 0 8 7 11 20
8 11 -3 20 -8 20 -12z m66 7 c5 -8 2 -9 -9 -5 -10 4 -20 0 -26 -11 -9 -15 -10
-15 -11 -1 0 29 32 41 46 17z m644 -21 c0 14 50 14 71 -1 17 -12 18 -14 4 -20
-9 -3 -18 0 -21 8 -5 14 -22 14 -55 1 -12 -4 -18 1 -22 17 -5 18 -9 20 -19 10
-10 -10 -10 -15 2 -22 9 -6 10 -10 3 -10 -19 0 -26 20 -12 36 12 14 15 14 31
-6 10 -12 18 -18 18 -13z m-520 12 c0 -14 -18 -20 -25 -9 -5 8 -14 5 -27 -7
-15 -12 -22 -14 -25 -6 -2 7 -12 9 -21 6 -14 -6 -15 -5 -2 10 15 17 100 22
100 6z m30 -4 c0 -8 -4 -15 -10 -15 -5 0 -10 7 -10 15 0 8 5 15 10 15 6 0 10
-7 10 -15z m30 0 c0 -8 -4 -15 -10 -15 -5 0 -10 7 -10 15 0 8 5 15 10 15 6 0
10 -7 10 -15z m623 -5 c-3 -11 -7 -20 -9 -20 -2 0 -4 9 -4 20 0 11 4 20 9 20
5 0 7 -9 4 -20z m71 -3 c-6 -16 -64 -21 -64 -6 0 16 21 20 37 7 10 -7 14 -8
10 -1 -4 6 -1 13 5 16 17 6 20 3 12 -16z m-97 0 c-5 -16 -31 -16 -52 -1 -16
12 -15 13 19 12 20 -1 35 -6 33 -11z m-671 -125 c2 -29 -22 -50 -38 -34 -9 9
-8 12 3 12 8 0 15 9 16 20 1 13 -2 18 -9 14 -7 -4 -8 -2 -4 5 11 18 31 7 32
-17z m704 12 c0 -12 -42 -65 -48 -60 -3 3 3 15 13 26 10 11 13 20 7 20 -7 0
-12 5 -12 10 0 6 9 10 20 10 11 0 20 -3 20 -6z m40 -4 c0 -5 -6 -10 -12 -10
-9 0 -9 -3 1 -9 8 -5 11 -16 8 -25 -7 -18 -37 -22 -37 -5 0 5 4 8 9 4 5 -3 12
-1 16 5 3 5 -1 10 -9 10 -19 0 -21 11 -4 28 15 15 28 16 28 2z m-890 -35 c0
-27 -22 -48 -47 -43 -27 5 -28 43 -2 61 27 20 49 12 49 -18z m697 -1 c7 -19
-5 -43 -30 -58 -13 -8 -21 -6 -34 6 -14 14 -15 22 -5 43 13 29 59 35 69 9z
m1569 -244 c0 -11 -4 -20 -8 -20 -4 0 -8 9 -8 20 0 11 4 20 8 20 4 0 8 -9 8
-20z m64 -2 c0 -5 7 -2 16 6 15 16 34 14 34 -3 0 -12 -49 -20 -56 -9 -3 5 -11
4 -19 -2 -15 -12 -31 3 -21 19 7 11 46 2 46 -11z m90 12 c8 12 10 12 10 -5 0
-14 -6 -21 -20 -21 -14 0 -20 7 -20 21 0 17 2 17 10 5 9 -13 11 -13 20 0z m60
-11 c0 -6 -4 -7 -10 -4 -5 3 -10 11 -10 16 0 6 5 7 10 4 6 -3 10 -11 10 -16z
m1166 1 c0 -12 -4 -16 -9 -11 -5 5 -6 14 -3 20 10 15 12 14 12 -9z m57 5 c10
-9 17 -11 20 -5 3 6 4 5 3 -1 -2 -15 -53 -21 -61 -8 -7 11 2 29 15 29 5 0 15
-7 23 -15z m57 0 c0 -8 -4 -15 -10 -15 -5 0 -10 7 -10 15 0 8 5 15 10 15 6 0
10 -7 10 -15z m27 -5 c1 -11 -2 -20 -8 -20 -5 0 -9 9 -9 20 0 11 4 20 8 20 4
0 8 -9 9 -20z m29 0 c0 -11 -4 -20 -8 -20 -4 0 -8 9 -8 20 0 11 4 20 8 20 4 0
8 -9 8 -20z m47 -5 c-3 -8 -10 -15 -15 -15 -7 0 -6 5 1 13 6 8 7 18 3 22 -4 5
-2 5 5 1 7 -4 10 -13 6 -21z m1168 16 c-8 -5 -10 -14 -6 -22 6 -11 5 -11 -5
-2 -14 12 -6 33 13 33 8 0 7 -3 -2 -9z m52 -6 c10 -9 17 -11 20 -5 3 6 4 5 3
-2 -4 -19 -50 -15 -54 5 -4 21 11 22 31 2z m57 0 c0 -8 -4 -15 -10 -15 -5 0
-10 7 -10 15 0 8 5 15 10 15 6 0 10 -7 10 -15z m30 -7 c0 -18 -2 -20 -9 -8 -6
8 -7 18 -5 22 9 14 14 9 14 -14z m30 1 c0 -11 -4 -17 -10 -14 -5 3 -10 13 -10
21 0 8 5 14 10 14 6 0 10 -9 10 -21z m44 -9 c-6 -6 -10 -3 -10 10 0 13 4 16
10 10 7 -7 7 -13 0 -20z m-5400 -92 c8 13 48 3 43 -12 -4 -12 -51 -16 -68 -5
-7 4 -8 12 -4 19 6 9 9 10 15 0 5 -8 10 -9 14 -2z m70 -13 c3 -8 1 -15 -4 -15
-6 0 -10 7 -10 15 0 8 2 15 4 15 2 0 6 -7 10 -15z m44 1 c9 14 112 12 112 -1
0 -6 -12 -11 -27 -10 -16 0 -30 -2 -33 -6 -3 -3 -22 -4 -42 -1 -27 3 -38 9
-38 21 0 14 2 14 10 1 7 -10 12 -12 18 -4z m596 -8 c9 -12 16 -17 16 -10 0 6
5 12 10 12 16 0 11 -17 -7 -24 -9 -4 -20 -1 -25 6 -6 10 -8 10 -8 1 0 -7 -7
-13 -15 -13 -15 0 -21 31 -8 43 11 12 21 8 37 -15z m57 -15 c-12 -20 -14 -14
-5 12 4 9 9 14 11 11 3 -2 0 -13 -6 -23z m103 2 c3 -9 0 -15 -10 -15 -9 0 -12
5 -8 13 6 8 3 8 -9 -1 -14 -12 -19 -12 -32 2 -15 15 -14 16 18 16 22 0 37 -6
41 -15z m1485 -32 c0 -25 -1 -26 -9 -8 -12 27 -12 35 0 35 6 0 10 -12 9 -27z
m161 -5 c0 17 20 15 20 -3 0 -10 -10 -14 -35 -13 -19 1 -33 4 -31 7 2 3 6 15
10 26 7 19 8 19 21 -5 8 -14 14 -19 15 -12z m288 -2 c0 -17 -5 -23 -15 -19
-10 4 -11 9 -2 19 9 11 9 14 0 14 -7 0 -9 5 -6 10 10 16 23 3 23 -24z m52 4
c0 -26 -15 -33 -30 -15 -10 12 -10 18 0 30 15 18 30 11 30 -15z m38 -4 c0 -17
-5 -23 -15 -19 -10 4 -11 9 -2 19 9 11 9 14 0 14 -7 0 -9 5 -6 10 10 16 23 3
23 -24z m29 -3 c-3 -10 -5 -4 -5 12 0 17 2 24 5 18 2 -7 2 -21 0 -30z m815 10
c-5 -25 -6 -25 -13 -8 -11 29 -10 35 5 35 9 0 12 -8 8 -27z m146 5 c2 -9 -4
-18 -13 -21 -11 -5 -15 0 -15 19 0 28 23 29 28 2z m336 13 c7 -11 -3 -41 -14
-41 -4 0 -7 11 -7 25 0 25 11 33 21 16z m44 -38 c-16 -15 -18 -15 -24 0 -3 9
-3 25 0 34 6 15 8 15 24 0 15 -16 15 -18 0 -34z m46 14 c-13 -35 -23 -13 -15
33 1 2 6 -1 11 -6 6 -6 8 -18 4 -27z m36 2 c0 -10 -4 -19 -10 -19 -5 0 -10 12
-10 26 0 14 4 23 10 19 6 -3 10 -15 10 -26z m776 6 c0 -14 -6 -25 -13 -25 -13
0 -18 32 -6 43 12 13 19 7 19 -18z m314 0 c0 -14 -4 -25 -10 -25 -5 0 -10 11
-10 25 0 14 5 25 10 25 6 0 10 -11 10 -25z m-3046 9 c9 -3 16 -14 16 -23 0
-14 -2 -14 -10 -1 -6 10 -10 11 -10 3 0 -7 -4 -13 -9 -13 -6 0 -9 9 -8 20 1
11 2 20 3 20 1 0 9 -3 18 -6z m220 0 c9 -3 16 -14 16 -23 0 -14 -2 -14 -10 -1
-9 13 -11 13 -20 0 -8 -12 -10 -11 -10 8 0 24 1 25 24 16z m154 -20 c0 -17 -4
-22 -11 -15 -5 5 -7 17 -4 25 9 23 15 19 15 -10z m189 -11 c-3 -10 -5 -4 -5
12 0 17 2 24 5 18 2 -7 2 -21 0 -30z m833 8 c0 -13 -2 -13 -9 -2 -7 11 -9 11
-14 0 -3 -8 -6 -5 -6 8 -1 16 3 21 14 17 8 -4 15 -14 15 -23z m387 -8 c-3 -10
-5 -4 -5 12 0 17 2 24 5 18 2 -7 2 -21 0 -30z m203 12 c0 -8 -4 -17 -10 -20
-6 -4 -10 5 -10 20 0 15 4 24 10 20 6 -3 10 -12 10 -20z m837 -7 c-3 -7 -5 -2
-5 12 0 14 2 19 5 13 2 -7 2 -19 0 -25z m103 23 c0 -3 -4 -12 -9 -19 -6 -11
-9 -9 -13 5 -3 12 0 20 8 20 8 0 14 -3 14 -6z m199 0 c18 -12 6 -42 -14 -35
-8 3 -15 15 -15 25 0 21 8 23 29 10z m101 -3 c0 6 4 12 9 12 5 0 7 -9 4 -20
-7 -25 -27 -21 -31 6 -3 16 -1 16 7 4 7 -10 11 -11 11 -2z m76 -25 c-5 -12
-10 -13 -18 -5 -6 6 -17 8 -24 5 -10 -4 -12 0 -8 11 3 9 9 14 13 12 4 -3 13
-1 21 4 17 11 25 -3 16 -27z m-3248 10 c-4 -22 -22 -20 -26 1 -2 10 3 16 13
16 10 0 15 -7 13 -17z m122 7 c-11 -7 -11 -10 -2 -10 7 0 10 -5 7 -10 -8 -13
-25 -3 -25 16 0 8 8 14 18 14 14 0 15 -2 2 -10z m160 1 c0 -3 -4 -12 -9 -19
-6 -10 -10 -10 -21 3 -11 13 -15 13 -22 3 -6 -11 -10 -10 -17 1 -7 11 -9 11
-14 0 -4 -11 -6 -10 -6 2 -1 13 9 16 44 16 25 0 45 -3 45 -6z m1098 -8 c-4
-22 -22 -20 -26 1 -2 10 3 16 13 16 10 0 15 -7 13 -17z m86 2 c-4 -8 -8 -15
-10 -15 -2 0 -4 7 -4 15 0 8 4 15 10 15 5 0 7 -7 4 -15z m94 -8 c-4 -25 -28
-35 -28 -12 0 12 -4 14 -19 6 -19 -11 -31 -5 -31 14 0 8 16 12 41 12 35 0 40
-2 37 -20z m26 8 c-4 -8 -8 -15 -10 -15 -2 0 -4 7 -4 15 0 8 4 15 10 15 5 0 7
-7 4 -15z m46 0 c0 -8 -7 -15 -15 -15 -8 0 -15 7 -15 15 0 8 7 15 15 15 8 0
15 -7 15 -15z m60 -2 c0 -15 -2 -16 -10 -3 -9 13 -10 13 -10 0 0 -12 -2 -13
-9 -1 -7 11 -9 11 -14 0 -4 -10 -6 -9 -6 4 -1 12 7 17 24 17 17 0 25 -5 25
-17z m1038 -1 c2 -7 -5 -12 -17 -12 -14 0 -19 5 -14 15 6 17 25 15 31 -3z m19
-4 c-3 -8 -6 -5 -6 6 -1 11 2 17 5 13 3 -3 4 -12 1 -19z m62 -1 c-16 -31 -16
-31 -21 -4 -3 17 0 23 14 24 15 2 16 -1 7 -20z m124 8 c4 -6 11 -4 17 5 8 13
10 12 10 -4 0 -14 -6 -17 -25 -14 -14 3 -28 1 -31 -4 -8 -12 -24 0 -24 18 0
17 40 16 53 -1z m89 6 c7 11 8 9 6 -6 -4 -24 -22 -23 -25 2 -2 11 0 13 3 4 5
-11 8 -11 16 0z m96 -8 c-4 -22 -22 -20 -26 1 -2 10 3 16 13 16 10 0 15 -7 13
-17z m222 1 c0 -17 -17 -27 -25 -14 -3 5 -17 7 -31 4 -17 -4 -24 -2 -24 9 0
10 11 14 40 14 26 0 40 -4 40 -13z m34 1 c3 -9 0 -15 -9 -15 -8 0 -15 7 -15
15 0 8 4 15 9 15 5 0 11 -7 15 -15z m-5634 -80 c0 -28 -25 -44 -42 -27 -7 7
-6 17 1 31 16 30 41 27 41 -4z m689 -7 c0 -7 -4 -22 -8 -33 -7 -17 -9 -15 -13
13 -3 22 -1 32 9 32 7 0 13 -6 12 -12z m37 -10 c-3 -13 -6 -26 -6 -30 0 -5 -3
-8 -7 -8 -5 0 -8 14 -9 30 -1 20 4 30 14 30 10 0 13 -7 8 -22z m-884 0 c-8 -8
-17 -8 -34 0 -22 10 -21 11 12 11 26 1 31 -2 22 -11z m-8 -22 c9 3 16 1 16 -5
0 -6 -16 -11 -35 -11 -25 0 -35 4 -35 15 0 12 4 13 19 5 11 -5 27 -7 35 -4z
m2467 -62 c14 -4 15 -9 6 -34 -9 -24 -8 -32 8 -49 16 -19 16 -21 2 -21 -10 0
-16 3 -15 8 3 14 -14 42 -23 36 -5 -3 -9 4 -9 15 0 12 7 21 15 21 8 0 15 5 15
10 0 14 -43 13 -58 -2 -7 -7 -12 -23 -12 -36 0 -13 -4 -21 -9 -18 -10 7 -22
46 -12 43 3 -1 7 3 9 8 5 16 -27 18 -45 4 -8 -7 -19 -22 -23 -34 -7 -17 -9
-17 -9 -2 -2 34 33 55 90 55 30 0 61 -2 70 -4z m245 -18 c18 -25 18 -47 0 -71
-10 -14 -28 -19 -74 -20 -34 -1 -59 1 -57 5 2 4 -7 5 -21 2 -14 -2 -24 -1 -23
4 1 5 1 20 0 33 -1 19 -4 21 -15 12 -12 -10 -17 -8 -26 9 -11 20 -9 21 14 18
32 -4 35 15 4 23 -13 3 24 5 80 5 90 -1 106 -4 118 -20z m1071 16 c8 -5 9 -13
3 -22 -14 -22 -12 -47 6 -64 11 -12 12 -16 2 -16 -14 1 -52 69 -43 78 3 3 5 0
5 -7 0 -7 5 -9 10 -6 6 3 10 13 10 21 0 23 -47 17 -64 -8 -9 -12 -16 -18 -16
-14 0 32 57 57 87 38z m306 -11 c23 -18 21 -57 -3 -81 -22 -22 -37 -25 -59
-11 -9 6 -22 6 -35 -1 -14 -8 -21 -8 -24 0 -2 7 -14 7 -35 1 -41 -12 -59 -11
-28 2 15 6 21 14 17 25 -3 9 -6 20 -6 26 0 7 -5 7 -13 -1 -15 -12 -27 -5 -27
17 0 10 7 12 26 8 19 -5 25 -3 22 6 -8 24 -46 21 -64 -6 -15 -24 -15 -28 0
-51 14 -22 15 -25 1 -25 -8 0 -14 3 -14 8 3 20 -2 32 -16 32 -8 0 -15 9 -15
20 0 14 7 20 22 20 26 0 13 16 -17 22 -11 2 41 4 116 3 100 0 140 -4 152 -14z
m1157 10 c11 -1 11 -4 2 -13 -7 -7 -12 -25 -12 -40 0 -23 7 -32 33 -44 24 -12
26 -14 7 -10 -14 3 -31 6 -38 6 -7 0 -11 4 -7 9 3 5 -3 17 -12 27 -24 24 -25
44 -2 44 11 0 17 5 14 10 -9 15 -36 12 -57 -7 -22 -20 -23 -41 -1 -65 15 -17
15 -18 -2 -18 -10 0 -15 3 -12 6 3 4 -2 18 -13 32 -19 23 -18 48 1 37 5 -4 9
1 9 9 0 19 -40 22 -58 4 -7 -7 -13 -23 -13 -37 -2 -25 -2 -25 -6 -3 -3 14 3
32 12 42 16 18 55 20 155 11z m223 -10 c21 -17 22 -65 1 -82 -9 -7 -40 -13
-69 -14 -64 -1 -84 20 -66 68 12 32 -3 37 -19 6 -9 -16 -8 -26 5 -45 13 -20
13 -24 1 -24 -8 0 -16 10 -18 23 -2 14 -10 22 -23 22 -11 0 -21 8 -23 19 -3
15 1 18 22 14 17 -4 26 -1 26 8 0 7 -10 14 -22 16 -13 2 20 3 73 3 66 0 101
-4 112 -14z m-1753 -76 c14 -19 14 -19 -2 -6 -10 7 -18 18 -18 24 0 6 1 8 3 6
1 -2 9 -13 17 -24z m-1379 -2 c13 -16 12 -17 -3 -4 -17 13 -22 21 -14 21 2 0
10 -8 17 -17z m63 -14 c-32 -13 -50 -9 -24 5 14 7 29 10 34 8 5 -3 1 -9 -10
-13z m2736 -2 c13 -5 13 -6 -1 -6 -8 -1 -24 6 -35 15 -19 15 -19 15 1 6 11 -5
27 -12 35 -15z m-2683 -3 c-3 -3 -12 -4 -19 -1 -8 3 -5 6 6 6 11 1 17 -2 13
-5z m1310 0 c-3 -3 -12 -4 -19 -1 -8 3 -5 6 6 6 11 1 17 -2 13 -5z m-3947
-153 c-1 -27 -50 -39 -50 -11 0 12 8 18 25 18 14 0 25 -3 25 -7z m84 3 c9 -3
13 -10 10 -15 -3 -5 9 -6 26 -3 23 5 30 3 30 -10 0 -9 -4 -16 -10 -16 -5 0
-10 6 -10 13 0 9 -2 9 -8 -1 -10 -16 -42 -5 -42 14 0 17 -16 18 -26 3 -3 -6 0
-15 7 -20 9 -6 10 -9 2 -9 -17 0 -24 15 -17 34 7 17 14 19 38 10z m-64 -21 c0
-5 -5 -15 -10 -23 -8 -12 -10 -11 -10 8 0 12 5 22 10 22 6 0 10 -3 10 -7z
m160 -8 c0 -8 -4 -15 -10 -15 -5 0 -10 7 -10 15 0 8 5 15 10 15 6 0 10 -7 10
-15z m2617 -112 c4 -10 -17 -13 -83 -13 -77 0 -86 2 -69 14 24 18 146 17 152
-1z m1700 0 c4 -10 -35 -13 -173 -13 -175 0 -205 4 -128 16 21 3 41 7 42 9 2
2 60 3 130 2 90 -2 126 -6 129 -14z m1813 3 c0 -14 -34 -16 -297 -16 -163 0
-294 2 -292 5 3 2 30 7 60 11 29 3 55 7 57 9 1 1 108 3 237 4 208 2 235 0 235
-13z m-6342 -28 c-5 -14 -58 -23 -58 -9 0 11 17 19 43 20 10 1 17 -4 15 -11z
m283 -7 c-7 -5 -11 -13 -7 -19 3 -6 -7 -17 -24 -25 -28 -14 -30 -14 -30 3 0
25 22 45 51 47 17 2 20 0 10 -6z m104 -1 c9 7 16 6 25 -5 7 -8 16 -12 21 -9
14 8 10 -9 -6 -30 -14 -19 -15 -18 -16 10 0 25 -2 26 -9 9 -5 -11 -9 -14 -9
-7 -1 14 -22 12 -33 -3 -4 -5 -8 -1 -8 11 0 24 13 41 18 24 3 -8 8 -8 17 0z
m102 -5 c-4 -8 -2 -17 3 -20 6 -4 10 -2 10 3 0 6 16 10 35 9 19 -1 30 -4 24
-8 -7 -4 -8 -12 -5 -18 9 -15 -7 -14 -22 1 -8 8 -12 8 -12 1 0 -13 -55 -12
-67 1 -5 5 0 6 11 2 16 -5 17 -4 7 8 -13 16 -7 36 11 36 5 0 8 -7 5 -15z m203
-34 c-11 -21 -37 -19 -52 3 -5 7 -8 7 -8 -1 0 -15 -46 -18 -54 -4 -3 5 2 15
11 22 13 11 17 11 21 1 3 -10 7 -10 20 0 12 10 16 10 19 1 4 -10 10 -9 26 2
25 17 33 6 17 -24z m52 25 c6 4 5 -2 -1 -15 -16 -28 -21 -26 -20 7 0 15 3 21
6 14 2 -6 9 -9 15 -6z m179 -33 c-10 -17 -10 -16 -11 3 0 23 13 41 18 25 2 -6
-1 -18 -7 -28z m48 15 c-17 -34 -19 -34 -19 -5 0 18 5 27 15 27 13 0 14 -4 4
-22z m-189 -2 c0 -16 -18 -31 -27 -22 -8 8 5 36 17 36 5 0 10 -6 10 -14z m41
2 c0 -10 2 -10 6 0 2 6 9 12 14 12 6 0 5 -8 -1 -20 -9 -17 -50 -30 -50 -16 0
27 29 49 31 24z m75 -17 c-10 -16 -36 -13 -36 3 0 17 21 27 34 16 4 -5 5 -13
2 -19z m213 14 c13 4 21 2 21 -6 0 -8 4 -8 15 1 21 18 35 1 24 -27 -10 -26
-29 -31 -29 -7 0 8 -4 12 -10 9 -5 -3 -11 2 -11 12 -1 15 -2 15 -6 2 -6 -23
-113 -24 -113 -2 0 13 -2 13 -17 2 -14 -12 -16 -12 -11 1 7 21 54 22 75 2 16
-16 16 -16 11 0 -7 18 13 31 23 15 4 -5 16 -6 28 -2z m5188 -26 c-4 17 -3 21
5 13 6 -6 8 -18 4 -27 -5 -14 -9 -15 -20 -6 -10 8 -16 9 -21 1 -8 -13 -25 -3
-24 13 0 9 2 8 6 -1 2 -6 9 -9 14 -6 6 3 5 12 -3 22 -7 10 1 6 16 -8 l29 -25
-6 24z m-2713 -5 c6 -15 4 -15 -11 -3 -10 7 -20 15 -22 16 -2 2 3 3 11 3 9 0
19 -7 22 -16z m1301 6 c3 -5 -1 -10 -10 -10 -9 0 -13 5 -10 10 3 6 8 10 10 10
2 0 7 -4 10 -10z m79 -6 c5 -14 4 -15 -9 -4 -17 14 -19 20 -6 20 5 0 12 -7 15
-16z m1380 0 c5 -14 4 -15 -9 -4 -17 14 -19 20 -6 20 5 0 12 -7 15 -16z
m-6084 -28 c0 -6 -7 -44 -17 -84 -17 -72 -17 -73 -46 -68 -35 6 -37 7 -42 38
-4 21 3 31 35 53 30 21 39 33 35 46 -4 11 -4 23 0 28 7 13 35 3 35 -13z m-320
5 c0 -6 -4 -13 -10 -16 -5 -3 -10 1 -10 9 0 9 5 16 10 16 6 0 10 -4 10 -9z
m60 -2 c0 -8 5 -8 15 1 12 10 15 10 15 -1 0 -9 3 -10 8 -3 10 15 102 5 102
-11 0 -10 -18 -13 -77 -10 -100 4 -95 3 -87 18 6 9 5 9 -7 0 -13 -10 -16 -10
-16 2 0 9 10 15 24 15 13 0 23 -5 23 -11z m370 1 c0 -5 -6 -8 -12 -6 -7 1 -10
1 -5 -1 4 -3 7 -12 6 -21 0 -12 -2 -13 -6 -3 -5 11 -7 11 -14 0 -7 -11 -9 -9
-9 7 0 11 3 24 7 27 10 10 33 8 33 -3z m149 -9 c0 -3 -4 -15 -9 -26 l-9 -20 0
20 c-1 17 -3 17 -11 5 -5 -8 -10 -11 -10 -6 0 5 -6 3 -13 -3 -16 -12 -27 -5
-27 18 0 12 2 13 8 3 7 -9 13 -8 26 7 16 18 47 19 45 2z m-89 -13 c0 -10 -4
-18 -10 -18 -5 0 -10 5 -10 11 0 8 -5 7 -15 -1 -18 -15 -30 -7 -22 14 8 21 57
15 57 -6z m230 11 c-12 -8 -10 -10 10 -8 14 1 30 0 35 -1 6 -1 22 -1 38 0 18
1 27 -3 27 -14 0 -23 -18 -28 -29 -9 -9 15 -12 15 -20 4 -6 -9 -11 -10 -15 -2
-4 6 -13 11 -19 11 -8 0 -8 -3 2 -9 8 -5 9 -11 3 -15 -6 -4 -15 1 -20 11 -9
15 -12 15 -28 3 -16 -14 -17 -13 -11 3 4 10 7 23 7 28 0 5 8 9 18 9 15 0 15
-2 2 -11z m-110 -13 c0 -8 -4 -18 -10 -21 -5 -3 -10 3 -10 14 0 12 5 21 10 21
6 0 10 -6 10 -14z m70 -4 c0 -14 -2 -15 -10 -2 -8 12 -10 12 -16 -3 -7 -18
-24 -14 -24 6 0 7 11 14 25 15 18 1 25 -3 25 -16z m186 -12 c0 -11 -5 -19 -10
-17 -14 5 -16 37 -2 37 6 0 12 -9 12 -20z m-626 -17 c-8 -3 -23 -12 -33 -21
-9 -8 -20 -12 -24 -9 -10 10 29 36 52 36 14 0 16 -2 5 -6z m943 -79 c75 -5 97
-10 97 -21 0 -12 -16 -14 -92 -9 -51 3 -192 11 -313 17 -328 17 -353 29 -50
24 143 -3 304 -8 358 -11z m-836 -250 c3 -8 1 -20 -5 -26 -8 -8 -9 -4 -6 13
l5 24 -15 -25 -15 -25 1 28 c3 29 25 37 35 11z m146 -7 c36 2 38 1 35 -25 -4
-34 -28 -35 -45 -2 -7 14 -13 20 -13 14 0 -15 -47 -24 -83 -17 -35 7 -30 27 7
30 16 1 31 4 34 7 2 3 10 2 16 -2 6 -3 28 -6 49 -5z m81 -1 c-11 -8 -15 -18
-10 -23 5 -4 11 -2 13 5 3 6 9 10 14 6 5 -3 12 2 15 10 9 24 34 19 35 -6 l0
-23 9 22 c6 15 15 21 25 17 25 -10 12 -27 -30 -43 -30 -12 -40 -12 -43 -3 -3
9 -8 10 -16 3 -6 -5 -18 -6 -25 -2 -18 11 -5 51 17 51 13 0 13 -2 -4 -14z
m134 -21 c-6 -14 -15 -25 -20 -25 -5 0 -1 11 8 25 9 14 18 25 20 25 2 0 -2
-11 -8 -25z m27 5 c-3 -11 -2 -20 4 -20 5 0 12 8 15 18 6 19 56 29 56 11 0 -5
-5 -7 -12 -3 -7 5 -8 3 -3 -6 6 -10 11 -9 21 5 16 21 47 13 42 -11 -5 -25 -37
-42 -47 -25 -6 9 -11 10 -15 2 -4 -6 -12 -8 -18 -5 -7 4 -6 9 2 14 8 5 7 9 -4
13 -10 4 -16 1 -16 -8 0 -8 -9 -15 -20 -15 -21 0 -24 8 -14 34 9 23 16 20 9
-4z m150 -10 c-4 -14 -2 -20 9 -20 8 0 16 6 19 13 2 7 3 6 3 -3 -1 -8 -11 -16
-24 -18 -23 -3 -27 4 -16 32 9 23 16 20 9 -4z m2730 -13 l20 -32 439 -3 439
-2 24 22 c13 12 23 27 23 35 0 11 62 13 328 12 180 -1 316 -4 302 -8 -14 -3
-26 -10 -26 -16 -1 -5 -5 -21 -9 -34 -4 -13 -3 -21 2 -18 5 3 15 2 22 -2 13
-9 -420 -14 -1104 -14 -749 1 -1095 5 -1095 15 0 5 5 6 10 3 6 -3 10 1 10 10
0 9 -5 13 -11 10 -6 -4 -5 2 2 14 10 14 15 17 21 8 5 -8 8 -7 8 5 0 13 -11 18
-47 21 -27 2 103 4 287 5 l335 1 20 -32z m-2628 -14 c-15 -15 -17 -15 -23 0
-5 14 -9 15 -20 6 -11 -9 -14 -8 -14 5 0 10 3 15 8 13 4 -3 16 -1 27 3 29 11
43 -6 22 -27z m1983 -33 c0 -5 -5 -10 -11 -10 -5 0 -7 5 -4 10 3 6 8 10 11 10
2 0 4 -4 4 -10z m2263 -7 c-7 -2 -19 -2 -25 0 -7 3 -2 5 12 5 14 0 19 -2 13
-5z m-4085 -182 c3 -8 -1 -12 -9 -9 -7 2 -15 10 -17 17 -3 8 1 12 9 9 7 -2 15
-10 17 -17z m6 -72 c-8 -13 -21 -11 -27 5 -4 10 0 12 14 9 10 -3 16 -9 13 -14z"/>
<path d="M2280 3971 c0 -6 4 -13 10 -16 6 -3 7 1 4 9 -7 18 -14 21 -14 7z"/>
<path d="M1570 3307 l-25 -10 24 -5 c13 -2 28 1 33 6 15 15 -4 21 -32 9z"/>
<path d="M1590 3243 c0 -7 4 -13 9 -13 5 0 11 6 14 13 3 8 -1 14 -9 14 -8 0
-14 -6 -14 -14z"/>
<path d="M5870 3010 c0 -5 5 -10 11 -10 5 0 7 5 4 10 -3 6 -8 10 -11 10 -2 0
-4 -4 -4 -10z"/>
<path d="M5980 3030 c0 -5 5 -10 10 -10 6 0 10 5 10 10 0 6 -4 10 -10 10 -5 0
-10 -4 -10 -10z"/>
<path d="M6708 2874 c3 -17 8 -22 15 -15 11 11 3 41 -11 41 -5 0 -7 -12 -4
-26z"/>
<path d="M1185 2850 c-3 -5 -1 -10 4 -10 6 0 11 5 11 10 0 6 -2 10 -4 10 -3 0
-8 -4 -11 -10z"/>
<path d="M1357 2853 c-4 -3 -7 -11 -7 -17 0 -6 5 -5 12 2 6 6 9 14 7 17 -3 3
-9 2 -12 -2z"/>
<path d="M6730 2604 c0 -8 5 -12 10 -9 6 4 8 11 5 16 -9 14 -15 11 -15 -7z"/>
<path d="M6746 2459 c4 -19 7 -35 8 -35 1 -1 25 -5 54 -9 48 -6 52 -5 52 13 0
23 -25 52 -44 52 -8 0 -28 3 -45 6 -31 6 -31 6 -25 -27z"/>
<path d="M784 2289 c-3 -6 -1 -16 5 -22 8 -8 11 -5 11 11 0 24 -5 28 -16 11z"/>
<path d="M1485 2270 c-4 -6 -11 -7 -17 -4 -7 4 -8 2 -4 -4 7 -12 36 -5 36 9 0
12 -7 11 -15 -1z"/>
<path d="M4490 2039 c0 -5 5 -7 10 -4 6 3 10 8 10 11 0 2 -4 4 -10 4 -5 0 -10
-5 -10 -11z"/>
<path d="M810 1919 c0 -5 5 -7 10 -4 6 3 10 8 10 11 0 2 -4 4 -10 4 -5 0 -10
-5 -10 -11z"/>
<path d="M1340 1914 c0 -8 5 -12 10 -9 6 3 10 10 10 16 0 5 -4 9 -10 9 -5 0
-10 -7 -10 -16z"/>
<path d="M3490 1870 c0 -5 5 -10 10 -10 6 0 10 5 10 10 0 6 -4 10 -10 10 -5 0
-10 -4 -10 -10z"/>
<path d="M4910 1870 c0 -5 5 -10 10 -10 6 0 10 5 10 10 0 6 -4 10 -10 10 -5 0
-10 -4 -10 -10z"/>
<path d="M820 1769 c0 -5 5 -7 10 -4 6 3 10 8 10 11 0 2 -4 4 -10 4 -5 0 -10
-5 -10 -11z"/>
<path d="M3236 1654 c-3 -9 -6 -23 -6 -32 0 -21 15 -5 25 26 7 25 -9 31 -19 6z"/>
<path d="M4620 1655 c-6 -8 -10 -22 -8 -32 3 -14 8 -11 21 15 18 32 9 44 -13
17z"/>
<path d="M1025 740 c-3 -5 -1 -10 4 -10 6 0 11 5 11 10 0 6 -2 10 -4 10 -3 0
-8 -4 -11 -10z"/>
<path d="M1236 745 c-3 -8 -1 -15 4 -15 13 0 22 18 11 24 -5 3 -11 -1 -15 -9z"/>
<path d="M3440 730 c-6 -11 -15 -18 -20 -15 -4 3 -6 -5 -2 -17 5 -21 6 -21 13
-2 7 18 8 18 8 0 1 -27 9 -16 16 22 6 37 1 41 -15 12z"/>
<path d="M3474 733 c2 -10 -2 -24 -8 -32 -8 -11 -8 -13 2 -7 7 4 12 2 12 -6 0
-10 3 -9 10 2 6 9 5 19 -3 29 -7 8 -10 16 -9 18 2 3 1 7 -1 10 -3 3 -4 -3 -3
-14z"/>
<path d="M3503 735 c0 -8 4 -12 9 -9 5 3 6 10 3 15 -9 13 -12 11 -12 -6z"/>
<path d="M3532 745 c4 -4 3 -14 -2 -20 -7 -8 -3 -18 13 -31 22 -19 22 -19 5 2
-13 14 -15 23 -7 31 8 8 7 13 -3 18 -7 5 -10 5 -6 0z"/>
<path d="M5449 745 c-1 -3 -3 -9 -4 -15 -1 -5 -3 -11 -5 -12 -5 -8 -7 -39 -2
-33 4 4 8 11 8 16 1 5 2 10 4 12 4 5 8 37 4 37 -2 0 -5 -2 -5 -5z"/>
<path d="M5490 739 c0 -5 -5 -7 -10 -4 -6 4 -10 3 -9 -2 1 -4 0 -10 -1 -13 -1
-3 -3 -13 -5 -23 -3 -14 0 -16 10 -7 10 8 14 7 17 -2 3 -7 5 4 5 25 0 20 -2
37 -4 37 -1 0 -3 -5 -3 -11z"/>
<path d="M5511 734 c0 -11 3 -14 6 -6 3 7 2 16 -1 19 -3 4 -6 -2 -5 -13z"/>
<path d="M5531 742 c3 -21 -2 -42 -9 -38 -5 3 -9 -1 -9 -9 0 -11 4 -12 14 -4
10 9 13 8 13 -2 1 -11 3 -11 9 1 17 29 16 53 -1 55 -10 2 -17 0 -17 -3z m22
-22 c-3 -12 -8 -19 -11 -16 -5 6 5 36 12 36 2 0 2 -9 -1 -20z"/>
<path d="M5416 723 c-6 -14 -5 -15 5 -6 7 7 10 15 7 18 -3 3 -9 -2 -12 -12z"/>
<path d="M3506 692 c-3 -5 1 -9 9 -9 8 0 12 4 9 9 -3 4 -7 8 -9 8 -2 0 -6 -4
-9 -8z"/>
</g>
</svg>
